<svg width="84" height="73" viewBox="0 0 84 73" fill="none" xmlns="http://www.w3.org/2000/svg">
<path d="M32.7425 17.7329L33.1625 17.9154C34.86 18.6758 36.2425 19.8773 37.1175 21.3525L37.3275 21.7175C38.1675 23.1623 40.5475 23.1623 41.405 21.7175L41.615 21.3525C42.49 19.8773 43.8725 18.6758 45.57 17.9154L45.99 17.7329C47.6525 17.0029 47.6525 14.9346 45.99 14.1894L45.57 14.0069C43.8725 13.2465 42.49 12.045 41.615 10.5698L41.405 10.2048C40.565 8.76 38.185 8.76 37.3275 10.2048L37.1175 10.5698C36.2425 12.045 34.86 13.2465 33.1625 14.0069L32.7425 14.1894C31.08 14.9194 31.08 16.9877 32.7425 17.7329Z" fill="url(#paint0_linear_76_74)"/>
<path d="M36.05 31.9831C37.765 31.2227 37.765 29.1088 36.05 28.3483L33.495 27.2077C31.22 26.1888 29.365 24.5767 28.1925 22.5996L26.88 20.3792C26.005 18.8888 23.5725 18.8888 22.6975 20.3792L21.385 22.5996C20.2125 24.5767 18.3575 26.1888 16.0825 27.2077L13.5275 28.3483C11.8125 29.1088 11.8125 31.2227 13.5275 31.9831L16.0825 33.1238C18.3575 34.1427 20.2125 35.7548 21.385 37.7319L22.6975 39.9523C23.5725 41.4427 26.005 41.4427 26.88 39.9523L28.1925 37.7319C29.365 35.7548 31.22 34.1427 33.495 33.1238L36.05 31.9831Z" fill="url(#paint1_linear_76_74)"/>
<path d="M68.88 41.0777L66.29 39.9219C63.1575 38.5379 60.655 36.3631 59.0625 33.6408L57.7325 31.39C56.56 29.3825 54.215 28.1354 51.625 28.1354C49.035 28.1354 46.69 29.3825 45.5175 31.39L44.1875 33.6408C42.595 36.3631 40.0925 38.5379 36.96 39.9219L34.37 41.0777C32.06 42.0967 30.625 44.1346 30.625 46.3854C30.625 48.6363 32.06 50.6742 34.37 51.6931L36.96 52.849C40.0925 54.2329 42.595 56.4077 44.1875 59.13L45.5175 61.3808C46.69 63.3883 49.035 64.6354 51.625 64.6354C54.215 64.6354 56.56 63.3883 57.7325 61.3808L59.0625 59.13C60.655 56.4077 63.1575 54.2329 66.29 52.849L68.88 51.6931C71.19 50.6742 72.625 48.6363 72.625 46.3854C72.625 44.1346 71.19 42.0967 68.88 41.0777ZM66.5 47.6325L63.91 48.7883C59.78 50.6133 56.49 53.4725 54.39 57.0617L53.06 59.3125C52.6575 59.9969 51.9225 60.0729 51.625 60.0729C51.3275 60.0729 50.5925 59.9969 50.19 59.3125L48.86 57.0617C46.76 53.4725 43.47 50.6133 39.34 48.7883L36.75 47.6325C35.9625 47.2827 35.875 46.644 35.875 46.3854C35.875 46.1269 35.9625 45.4881 36.75 45.1383L39.34 43.9825C43.47 42.1575 46.76 39.2983 48.86 35.7092L50.19 33.4583C50.5925 32.774 51.3275 32.6979 51.625 32.6979C51.9225 32.6979 52.6575 32.774 53.06 33.4583L54.39 35.7092C56.49 39.2983 59.78 42.1575 63.91 43.9825L66.5 45.1383C67.2875 45.4881 67.375 46.1269 67.375 46.3854C67.375 46.644 67.2875 47.2827 66.5 47.6325Z" fill="url(#paint2_linear_76_74)"/>
<defs>
<linearGradient id="paint0_linear_76_74" x1="42.4331" y1="9.1212" x2="42.4331" y2="64.6354" gradientUnits="userSpaceOnUse">
<stop stop-color="#AD0000"/>
<stop offset="1" stop-color="#EFA500"/>
</linearGradient>
<linearGradient id="paint1_linear_76_74" x1="42.4331" y1="9.1212" x2="42.4331" y2="64.6354" gradientUnits="userSpaceOnUse">
<stop stop-color="#AD0000"/>
<stop offset="1" stop-color="#EFA500"/>
</linearGradient>
<linearGradient id="paint2_linear_76_74" x1="42.4331" y1="9.1212" x2="42.4331" y2="64.6354" gradientUnits="userSpaceOnUse">
<stop stop-color="#AD0000"/>
<stop offset="1" stop-color="#EFA500"/>
</linearGradient>
</defs>
</svg>
