<svg width="87" height="86" viewBox="0 0 87 86" fill="none" xmlns="http://www.w3.org/2000/svg">
<path d="M40.8715 56.5997C41.4294 57.0668 42.1877 57.3329 42.9805 57.3396C43.7733 57.3463 44.5361 57.0931 45.102 56.6355L57.1513 46.846C57.431 46.6187 57.6537 46.3479 57.8066 46.0492C57.9596 45.7504 58.0397 45.4295 58.0425 45.1047C58.0482 44.4488 57.7384 43.8171 57.1814 43.3486C56.6244 42.8801 55.8658 42.6131 55.0724 42.6064C54.279 42.5997 53.5159 42.8538 52.9509 43.3128L46.0443 48.9242L46.1974 31.1564C46.203 30.5006 45.8933 29.869 45.3364 29.4006C44.7795 28.9321 44.021 28.6651 43.2277 28.6584C42.4344 28.6517 41.6714 28.9058 41.1065 29.3648C40.5416 29.8237 40.221 30.45 40.2154 31.1058L40.0623 48.8735L33.2533 43.1461C32.9775 42.9141 32.6493 42.7292 32.2875 42.6018C31.9256 42.4745 31.5372 42.4072 31.1443 42.4039C30.7515 42.4006 30.3619 42.4612 29.9979 42.5825C29.6339 42.7037 29.3026 42.883 29.0228 43.1103C28.7431 43.3376 28.5204 43.6084 28.3675 43.9071C28.2145 44.2059 28.1344 44.5268 28.1316 44.8516C28.1288 45.1764 28.2034 45.4986 28.3512 45.7999C28.4989 46.1012 28.7169 46.3757 28.9927 46.6077L40.8715 56.5997Z" fill="white"/>
<path d="M81.7839 43C81.7839 63.9441 64.6381 81 43.392 81C22.1458 81 5 63.9441 5 43C5 22.0559 22.1458 5 43.392 5C64.6381 5 81.7839 22.0559 81.7839 43Z" stroke="white" stroke-width="10"/>
</svg>
